<?xml version="1.0" encoding="utf-8"?>
<!-- Generator: Adobe Illustrator 27.5.0, SVG Export Plug-In . SVG Version: 6.00 Build 0)  -->
<svg version="1.1" xmlns="http://www.w3.org/2000/svg" xmlns:xlink="http://www.w3.org/1999/xlink" x="0px" y="0px"
	 viewBox="0 0 500 500" style="enable-background:new 0 0 500 500;" xml:space="preserve">
<g id="BACKGROUND">
	<rect style="fill:#FFFFFF;" width="500" height="500"/>
	<polygon style="fill:#EEDCC5;" points="0,0.449 0,123.386 0,129.741 0,246.322 0,252.678 0,370.259 0,375.614 0,499.551 
		500,499.551 500,375.614 500,370.259 500,252.678 500,246.322 500,129.741 500,123.386 500,0.449 	"/>
</g>
<g id="OBJECT">
	<g>
		<defs>
			<circle id="SVGID_1_" cx="250" cy="264.236" r="191.481"/>
		</defs>
		<clipPath id="SVGID_00000072973204624738014940000005437588723670521272_">
			<use xlink:href="#SVGID_1_"  style="overflow:visible;"/>
		</clipPath>
		<g style="clip-path:url(#SVGID_00000072973204624738014940000005437588723670521272_);">
			<rect x="64.183" y="36.803" style="fill:#59838B;" width="412.302" height="294.085"/>
			<path style="fill:#F9E0C5;" d="M288.499,234.283c0,0,19.134-7.397,23.599-11.671s16.583-16.392,20.41-9.377
				c3.827,7.016,12.118-1.276,27.426,12.756c15.307,14.032,18.496,17.776,35.079,19.731s27.806,9.382,39.544,14.066
				c11.738,4.684,37.081,2.698,51.025,10.85S550,303.804,550,303.804s-91.844,6.378-125.011,7.654
				c-33.166,1.276-182.397-38.321-182.397-38.321L288.499,234.283z"/>
			<path style="fill:#F9E0C5;" d="M85.038,192.825c0,0,72.072-18.367,88.655-14.286s37.849-15.053,46.669-12.502
				c8.82,2.551,19.84-5.13,29.638,7.64c9.797,12.77,30.845,51.039,51.255,57.417c20.41,6.378,7.654,23.585,27.426,28.694
				c19.772,5.109,55.489,19.779,57.403,24.244c1.913,4.465-49.749,25.512-59.954,25.512s-171.338,8.929-187.4,0
				s-62.622-58.041-63.897-60.592C73.557,246.401,85.038,192.825,85.038,192.825z"/>
			<path style="fill:#D16675;" d="M-64.475,220.251c0,0,27.054-3.189,46.826-15.307c19.772-12.118,24.237-1.913,41.458-12.756
				c17.221-10.843,28.701-18.496,33.804-17.221s21.048-5.61,23.599,3.573c2.551,9.183,8.929,16.185,20.41,18.425
				s22.323,12.444,31.89,14.995c9.567,2.551,70.159-2.295,80.364,10.652c10.205,12.947,77.813,49.94,95.034,46.113
				c17.221-3.827,116.081,11.481,116.081,11.481s-39.544,38.906-44.647,40.82s-214.315,24.875-214.315,24.875L-64.475,310.82
				V220.251z"/>
			<path style="fill:#64335B;" d="M-64.475,275.528c0,0,29.392,6.803,47.251-11.906s90.994-46.773,102.9-39.969
				s11.906,6.803,11.906,6.803s37.418,18.626,51.025,15.266s43.371-2.51,54.426,9.396s69.734,28.064,89.293,28.914
				s102.049-26.363,112.254-22.961c10.205,3.402,17.098,4.252,41.715,3.402c24.617-0.85,27.329,8.504,44.257,13.607
				c16.928,5.102,53.531-16.158,73.923-2.551v79.956H-64.475V275.528z"/>
			<path style="fill:#563A60;" d="M-60.879,315.781c0,0,23.245-9.921,30.898-14.74s6.52-11.339,14.174-12.473
				c7.654-1.134,13.607-18.709,27.213-18.709s29.481-5.669,37.985-9.921c8.504-4.252,74.978-19.276,83.057-12.473
				c8.079,6.803,8.079,17.859,12.331,18.284s30.19-5.528,35.717,3.402s14.882,16.158,19.559,15.733
				c4.677-0.425,16.583-16.341,25.938-4.131c9.355,12.21,33.166,38.998,46.347,39.423c13.181,0.425,17.008-7.229,32.316,0
				c15.307,7.228,54.852,10.205,70.584,6.378c15.733-3.827,71.009-0.425,84.616,8.929c13.607,9.355,17.008,8.929,36.568,9.355
				c19.559,0.425,68.051,5.528,68.051,5.528v5.12H-64.475v-36.869L-60.879,315.781z"/>
		</g>
	</g>
	<g>
		<path style="fill:#3A2548;" d="M250,65.25c-109.72,0-198.98,89.27-198.98,198.99c0,14.04,1.46,27.75,4.25,40.98
			c7.41,35.29,24.21,67.16,47.64,92.89c2.15,0.34,4.3,0.64,6.46,0.92c3.78,0.55,7.59,0.95,11.37,1.32c2.02,0.16,4.05,0.3,6.08,0.43
			c-26.69-24.1-46.31-55.9-55.31-91.85c-3.59-14.31-5.49-29.28-5.49-44.69c0-101.45,82.53-183.99,183.98-183.99
			s183.98,82.54,183.98,183.99c0,12.66-1.29,25.02-3.73,36.97c-5.49,26.79-16.82,51.48-32.6,72.67c1.6,0.43,3.19,0.87,4.78,1.32
			c0.37,0.07,0.73,0.18,1.1,0.29c2.13,0.59,4.22,1.21,6.34,1.84c1.03,0.31,2.07,0.63,3.1,0.95c15.03-21.41,25.95-45.9,31.61-72.33
			c2.88-13.45,4.4-27.41,4.4-41.71C448.98,154.52,359.72,65.25,250,65.25z"/>
	</g>
	<path style="fill:#3D3C33;" d="M459.455,377.755l3.435-14.949l6.426-27.896l-10.319-23.594c-3.304-1.283-6.623-2.545-9.966-3.763
		c-2.31-0.843-4.656-1.687-6.966-2.493c-2.31-0.77-4.656-1.577-6.966-2.31c-11.476-3.74-23.172-7.003-34.978-9.423
		c-14.776-3.043-29.698-4.84-44.621-4.84c-4.18-0.037-8.359,0.11-12.539,0.403c-6.93,0.477-13.859,1.32-20.752,2.456
		c-35.748,5.94-71.239,19.396-106.913,27.205c-9.203,2.017-18.405,3.483-27.571,4.436c-1.65,0.183-3.3,0.33-4.95,0.477
		c-6.71,0.587-13.419,0.88-20.092,0.917c-14.702,0.073-29.295-1.1-43.704-3.483c-0.183,0.037-0.33,0-0.513-0.073
		c-7.516-1.21-14.996-2.75-22.402-4.62c-6.16-1.503-12.209-3.227-18.259-5.206c-2.713-0.843-5.426-1.76-8.139-2.713
		c-0.037,0-0.037,0-0.037,0c-2.75-0.953-5.463-1.943-8.14-3.006c-1.255-0.477-2.508-0.968-3.76-1.465l-17.312,9.927l-3.713,16.103
		l-6.019,26.14l14.425,26.748c20.814,7.893,42.332,13.458,64.262,16.298c3.776,0.55,7.59,0.953,11.366,1.32
		c3.74,0.293,7.516,0.55,11.256,0.697c19.065,0.88,38.314-0.367,57.563-3.923c2.676-0.513,5.353-1.027,8.029-1.613
		c23.282-5.096,46.454-12.612,69.735-18.882h0.037c13.383-3.593,26.802-6.746,40.257-8.799c5.866-0.88,11.769-1.577,17.672-1.98
		c12.319-0.843,24.639-0.367,36.921,1.137c6.27,0.733,12.503,1.76,18.699,3.006c7.223,1.43,14.409,3.19,21.522,5.206
		c0.367,0.073,0.733,0.184,1.1,0.293c2.127,0.587,4.216,1.21,6.343,1.833c2.456,0.733,4.913,1.54,7.37,2.31h0.037
		c7.322,2.393,14.548,4.996,21.675,7.73L459.455,377.755z"/>
	<g>
		<defs>
			<path id="SVGID_00000159452843882935091870000015511299331596611748_" d="M459.455,377.755l3.435-14.949l6.426-27.896
				l-10.319-23.594c-3.304-1.283-6.623-2.545-9.966-3.763c-2.31-0.843-4.656-1.687-6.966-2.493c-2.31-0.77-4.656-1.577-6.966-2.31
				c-11.476-3.74-23.172-7.003-34.978-9.423c-14.776-3.043-29.698-4.84-44.621-4.84c-4.18-0.037-8.359,0.11-12.539,0.403
				c-6.93,0.477-13.859,1.32-20.752,2.456c-35.748,5.94-71.239,19.396-106.913,27.205c-9.203,2.017-18.405,3.483-27.571,4.436
				c-1.65,0.183-3.3,0.33-4.95,0.477c-6.71,0.587-13.419,0.88-20.092,0.917c-14.702,0.073-29.295-1.1-43.704-3.483
				c-0.183,0.037-0.33,0-0.513-0.073c-7.516-1.21-14.996-2.75-22.402-4.62c-6.16-1.503-12.209-3.227-18.259-5.206
				c-2.713-0.843-5.426-1.76-8.139-2.713c-0.037,0-0.037,0-0.037,0c-2.75-0.953-5.463-1.943-8.14-3.006
				c-1.255-0.477-2.508-0.968-3.76-1.465l-17.312,9.927l-3.713,16.103l-6.019,26.14l14.425,26.748
				c20.814,7.893,42.332,13.458,64.262,16.298c3.776,0.55,7.59,0.953,11.366,1.32c3.74,0.293,7.516,0.55,11.256,0.697
				c19.065,0.88,38.314-0.367,57.563-3.923c2.676-0.513,5.353-1.027,8.029-1.613c23.282-5.096,46.454-12.612,69.735-18.882h0.037
				c13.383-3.593,26.802-6.746,40.257-8.799c5.866-0.88,11.769-1.577,17.672-1.98c12.319-0.843,24.639-0.367,36.921,1.137
				c6.27,0.733,12.503,1.76,18.699,3.006c7.223,1.43,14.409,3.19,21.522,5.206c0.367,0.073,0.733,0.184,1.1,0.293
				c2.127,0.587,4.216,1.21,6.343,1.833c2.456,0.733,4.913,1.54,7.37,2.31h0.037c7.322,2.393,14.548,4.996,21.675,7.73
				L459.455,377.755z"/>
		</defs>
		<use xlink:href="#SVGID_00000159452843882935091870000015511299331596611748_"  style="overflow:visible;fill:#3A2548;"/>
		<clipPath id="SVGID_00000052794140565793053630000006505298778549685934_">
			<use xlink:href="#SVGID_00000159452843882935091870000015511299331596611748_"  style="overflow:visible;"/>
		</clipPath>
		<g style="clip-path:url(#SVGID_00000052794140565793053630000006505298778549685934_);">
			<path id="SVGID_x5F_00000015343017337198503460000009372004902736031114_x5F_" style="fill:none;" d="M48.572,355.484
				c55.224,17.512,114.722,23.44,171.859,12.762c41.389-7.735,81.795-21.576,124.008-24.506
				c44.025-3.056,89.989,6.994,132.046,19.197"/>
			<text>			<textPath  xlink:href="#SVGID_x5F_00000015343017337198503460000009372004902736031114_x5F_" startOffset="3.125%">
<tspan  style="fill:#B73D65; font-family:'LeckerliOne'; font-size:55px;">Traveling Time</tspan>			</textPath>
</text>
		</g>
	</g>
	<g>
		<path style="fill:#F9E0C5;" d="M389.825,186.281c0,0-5.994-0.991-8.812,0.276c-13.852-14.003-45.045,3.6-45.045,3.6l-28.18-3.876
			c0,0-17.118,6.137-17.764,6.298c-0.646,0.161-22.124,6.783-22.124,6.783l-19.056,14.372l-95.278,51.999
			c0,0-24.708-34.558-39.888-34.235c-15.18,0.323-17.925,8.559-17.118,34.397c0.807,25.838,13.565,30.844,13.565,30.844
			l33.428-4.522l129.836-33.266l62.576-24.223l48.043-23.739l2.907-8.236l-1.608-9.324L389.825,186.281z"/>
		<polygon style="fill:#3A2548;" points="117.718,290.198 110.03,244.358 127.166,290.198 		"/>
		<path style="fill:#C04970;" d="M155.352,270.338c-10.837-0.296-21.675-0.591-32.512-0.887c-5.573-0.152-11.146-0.304-16.719-0.456
			c-6.951-0.19-13.493-0.202-18.834,5.102c-1.308,1.299-2.476,2.976-2.35,4.816c0.116,1.698,1.347,3.16,2.821,4.012
			c3.239,1.872,7.543,2.027,11.169,2.406c4.396,0.46,8.823,0.616,13.241,0.663c5.66,0.059,11.331-0.061,17.017-0.398
			C129.187,285.594,155.352,270.338,155.352,270.338z"/>
		<path style="fill:#C04970;" d="M388.445,205.296l24.517,9.56c2.694,1.05,2.846,4.805,0.246,6.07l-17.671,8.6
			c-15.815,7.697-33.004,12.165-50.565,13.144l-60.275,3.361L388.445,205.296z"/>
		<path style="fill:#C04970;" d="M248.846,213.733l-66.805-24.86c-7.111-2.854-9.053-12.01-3.713-17.505l0,0
			c13.502-13.897,33.642-19.076,52.174-13.417l105.467,32.205l-29.956-1.615l-23.093,19.056L248.846,213.733z"/>
		<g>
			<path style="fill:#3A2548;" d="M389.825,186.281c0,0-10.981,14.211-15.503,4.037c-0.328-0.738,0.161,8.559,7.267,8.559
				c1.209-0.361,2.528-1.898,3.752-3.773c-0.021,3.309-0.577,10.341-4.882,11.202c-5.652,1.13-9.366-9.528-9.366-9.528
				c-14.211,23.254-79.29,42.794-79.29,42.794c-1.482-6.139-0.459-13.735,1.576-21.174l69.963-32.117l-67.585,24.614
				c3.034-8.467,6.783-15.922,8.802-19.708l11.548,8.174l-10.093-10.82c-0.922-0.071-2.353,0.193-4.131,0.691l-0.069,0.012
				l0.008,0.006c-14.459,4.081-52.975,24.484-52.975,24.484c-2.293,1.753-6.106,10.156-9.771,19.346l-70.004,31.2l64.632-17.018
				c-2.666,7.35-4.559,12.981-4.559,12.981l-84.62,28.099l20.347-21.639c0,0-22.77,8.559-39.887,15.826
				s-14.857,14.211-14.857,14.211c2.584,2.907,20.509,2.422,34.397,3.391c13.888,0.969,17.037-10.901,17.037-10.901
				c168.835-36.577,211.145-62.899,221.642-73.073c8.804-8.533,4.318-18.765,2.642-21.846
				C388.053,190.692,389.825,186.281,389.825,186.281z"/>
			<path style="fill:#3A2548;" d="M389.825,186.281c-10.214-2.907-15.503,4.037-15.503,4.037
				C381.186,185.15,389.825,186.281,389.825,186.281z"/>
		</g>
	</g>
	<polygon style="fill:#F9E0C5;" points="250,86.722 254.155,95.141 263.445,96.491 256.722,103.043 258.309,112.296 250,107.928 
		241.691,112.296 243.278,103.043 236.555,96.491 245.845,95.141 	"/>
	<polygon style="fill:#F9E0C5;" points="204.611,92.073 208.766,100.491 218.056,101.841 211.334,108.394 212.921,117.646 
		204.611,113.278 196.302,117.646 197.889,108.394 191.167,101.841 200.457,100.491 	"/>
	<polygon style="fill:#F9E0C5;" points="164.402,108.578 168.557,116.996 177.847,118.346 171.125,124.899 172.712,134.152 
		164.402,129.783 156.093,134.152 157.68,124.899 150.957,118.346 160.248,116.996 	"/>
	<polygon style="fill:#F9E0C5;" points="132.043,134.152 136.197,142.57 145.488,143.92 138.765,150.473 140.352,159.725 
		132.043,155.357 123.733,159.725 125.32,150.473 118.598,143.92 127.888,142.57 	"/>
	<polygon style="fill:#F9E0C5;" points="295.389,92.073 291.234,100.491 281.944,101.841 288.666,108.394 287.079,117.646 
		295.389,113.278 303.698,117.646 302.111,108.394 308.833,101.841 299.543,100.491 	"/>
	<polygon style="fill:#F9E0C5;" points="335.598,108.578 331.443,116.996 322.153,118.346 328.875,124.899 327.288,134.152 
		335.598,129.783 343.907,134.152 342.32,124.899 349.043,118.346 339.752,116.996 	"/>
	<polygon style="fill:#F9E0C5;" points="367.957,134.152 363.803,142.57 354.512,143.92 361.235,150.473 359.648,159.725 
		367.957,155.357 376.267,159.725 374.68,150.473 381.402,143.92 372.112,142.57 	"/>
</g>
<g id="DESIGNED_BY_FREEPIK">
	<g>
		<g id="XMLID_319_">
			<g id="XMLID_338_">
				<path id="XMLID_346_" style="fill:#3D3C33;" d="M252.819,465.465c-0.433,0.443-0.804,0.932-1.109,1.453l-0.465-0.241
					c-0.067-0.297-0.35-0.502-0.659-0.466c-0.331,0.039-0.567,0.339-0.529,0.67c0.039,0.331,0.339,0.567,0.67,0.528
					c0.065-0.007,0.127-0.025,0.184-0.052l0.451,0.234c-0.251,0.554-0.433,1.139-0.539,1.743l0.747,0.132
					c0.229-1.306,0.849-2.507,1.792-3.473L252.819,465.465z"/>
				<path id="XMLID_345_" style="fill:#3D3C33;" d="M258.306,463.164c-0.171,0-0.341,0.006-0.509,0.017l-0.074-0.626
					c0.188-0.149,0.296-0.389,0.266-0.645c-0.046-0.393-0.402-0.674-0.795-0.628c-0.394,0.046-0.675,0.402-0.628,0.796
					c0.03,0.254,0.19,0.461,0.404,0.563l0.073,0.624c-0.714,0.116-1.402,0.332-2.06,0.646l0.327,0.685
					c0.935-0.447,1.941-0.674,2.995-0.674c0.497,0,0.993,0.053,1.476,0.158l0.16-0.741
					C259.407,463.222,258.857,463.164,258.306,463.164z"/>
				<path id="XMLID_344_" style="fill:#3D3C33;" d="M264.909,465.711c0.331-0.04,0.566-0.341,0.525-0.672
					c-0.04-0.331-0.341-0.566-0.672-0.525c-0.31,0.038-0.535,0.304-0.53,0.608l-0.416,0.363c-0.418-0.43-0.89-0.813-1.407-1.14
					l-0.404,0.642c1.135,0.715,2.021,1.727,2.564,2.925l0.69-0.313c-0.251-0.554-0.567-1.071-0.942-1.545l0.402-0.351
					C264.78,465.715,264.843,465.719,264.909,465.711z"/>
				<path id="XMLID_343_" style="fill:#3D3C33;" d="M257.759,473.372c-0.386,0.023-0.775,0.035-1.157,0.035
					c-0.88,0-1.733-0.061-2.479-0.18c-0.391-0.062-0.846-0.154-1.27-0.292c1.047,1.861,3.069,3.125,5.389,3.125
					c2.855,0,5.263-1.916,5.949-4.503c-0.682,0.449-1.505,0.825-2.458,1.122C260.553,473.047,259.178,473.287,257.759,473.372z"/>
				<path id="XMLID_339_" style="fill:#3D3C33;" d="M258.306,464.68c-3.352,0-6.079,2.666-6.079,5.943
					c0,0.425,0.046,0.849,0.137,1.261c0.674,0.483,2.706,0.891,5.348,0.731c2.88-0.174,5.297-0.958,6.672-2.159
					c-0.005-0.194-0.02-0.39-0.045-0.581C263.958,466.914,261.365,464.68,258.306,464.68z M256.147,471.195
					c-1.02,0-1.85-0.83-1.85-1.85c0-1.021,0.83-1.851,1.85-1.851c1.02,0,1.85,0.83,1.85,1.851
					C257.997,470.365,257.167,471.195,256.147,471.195z M260.884,470.287c-0.75,0-1.36-0.61-1.36-1.36s0.61-1.36,1.36-1.36
					s1.36,0.61,1.36,1.36S261.634,470.287,260.884,470.287z"/>
			</g>
			<path id="XMLID_336_" style="fill:#3D3C33;" d="M274.31,466.547c-0.295-0.116-0.806-0.31-1.383-0.238
				c-0.551,0.069-0.844,0.341-0.844,1.007v0.866h2.229v1.717h-2.229v5.455h-1.932v-5.455h-1.339v-1.717h1.339v-0.889
				c0-1.68,0.896-2.782,2.568-2.782c0.643,0,1.157,0.121,1.59,0.308V466.547z"/>
			<path id="XMLID_334_" style="fill:#3D3C33;" d="M279.012,469.878c-0.177-0.029-0.357-0.046-0.525-0.046
				c-0.896,0-1.51,0.548-1.51,1.613v3.908h-1.933v-7.172h1.873v0.784c0.451-0.673,1.14-0.977,2.021-0.977
				c0.414,0,0.848,0.128,1.095,0.337L279.012,469.878z"/>
			<path id="XMLID_331_" style="fill:#3D3C33;" d="M286.68,471.757c0,0.222-0.016,0.488-0.037,0.651h-5.085
				c0.207,1.036,0.933,1.487,1.843,1.487c0.622,0,1.295-0.252,1.813-0.689l1.133,1.243c-0.815,0.748-1.851,1.089-3.057,1.089
				c-2.198,0-3.724-1.496-3.724-3.753c0-2.258,1.48-3.797,3.627-3.797C285.258,467.99,286.672,469.522,286.68,471.757z
				 M281.566,471.091h3.175c-0.178-0.918-0.732-1.437-1.561-1.437C282.269,469.655,281.736,470.203,281.566,471.091z"/>
			<path id="XMLID_328_" style="fill:#3D3C33;" d="M294.333,471.757c0,0.222-0.016,0.488-0.037,0.651h-5.085
				c0.207,1.036,0.933,1.487,1.843,1.487c0.622,0,1.296-0.252,1.814-0.689l1.133,1.243c-0.814,0.748-1.851,1.089-3.058,1.089
				c-2.198,0-3.723-1.496-3.723-3.753c0-2.258,1.48-3.797,3.627-3.797C292.912,467.99,294.326,469.522,294.333,471.757z
				 M289.219,471.091h3.175c-0.178-0.918-0.733-1.437-1.562-1.437C289.922,469.655,289.389,470.203,289.219,471.091z"/>
			<path id="XMLID_325_" style="fill:#3D3C33;" d="M302.679,471.764c0,2.154-1.495,3.775-3.472,3.775
				c-0.962,0-1.643-0.378-2.109-0.933v3.708h-1.925v-10.133h1.888v0.792c0.467-0.585,1.154-0.984,2.139-0.984
				C301.184,467.99,302.679,469.611,302.679,471.764z M297.001,471.764c0,1.133,0.748,1.977,1.844,1.977
				c1.14,0,1.85-0.881,1.85-1.977c0-1.095-0.71-1.976-1.85-1.976C297.749,469.789,297.001,470.632,297.001,471.764z"/>
			<path id="XMLID_322_" style="fill:#3D3C33;" d="M305.783,465.836c0,0.696-0.541,1.229-1.236,1.229
				c-0.696,0-1.228-0.533-1.228-1.229c0-0.695,0.532-1.243,1.228-1.243C305.242,464.592,305.783,465.14,305.783,465.836z
				 M305.523,475.354h-1.932v-7.172h1.932V475.354z"/>
			<path id="XMLID_320_" style="fill:#3D3C33;" d="M308.747,470.736l2.702-2.554h2.368l-3.479,3.375l3.501,3.797h-2.376
				l-2.717-2.901v2.901h-1.932v-10.658h1.932V470.736z"/>
		</g>
		<g>
			<path style="fill:#3D3C33;" d="M177.127,475.29v-1.055c-0.527,0.718-1.391,1.23-2.387,1.23c-1.846,0-3.149-1.406-3.149-3.706
				c0-2.256,1.289-3.721,3.149-3.721c0.952,0,1.816,0.469,2.387,1.245v-3.765h1.099v9.771H177.127z M177.127,473.371v-3.208
				c-0.395-0.615-1.245-1.143-2.124-1.143c-1.42,0-2.27,1.172-2.27,2.739c0,1.567,0.85,2.725,2.27,2.725
				C175.882,474.484,176.732,473.986,177.127,473.371z"/>
			<path style="fill:#3D3C33;" d="M179.646,471.745c0-2.051,1.465-3.706,3.486-3.706c2.139,0,3.398,1.67,3.398,3.794v0.278h-5.727
				c0.088,1.333,1.025,2.446,2.549,2.446c0.806,0,1.626-0.322,2.182-0.894l0.527,0.718c-0.703,0.703-1.655,1.084-2.812,1.084
				C181.155,475.465,179.646,473.957,179.646,471.745z M183.118,468.947c-1.509,0-2.256,1.274-2.314,2.358h4.644
				C185.433,470.25,184.729,468.947,183.118,468.947z"/>
			<path style="fill:#3D3C33;" d="M187.322,474.352l0.571-0.791c0.469,0.542,1.362,1.011,2.329,1.011c1.084,0,1.67-0.513,1.67-1.216
				c0-1.714-4.38-0.659-4.38-3.281c0-1.099,0.952-2.036,2.636-2.036c1.202,0,2.051,0.454,2.623,1.025l-0.513,0.762
				c-0.424-0.513-1.201-0.894-2.109-0.894c-0.966,0-1.567,0.483-1.567,1.113c0,1.553,4.379,0.527,4.379,3.281
				c0,1.187-0.952,2.139-2.783,2.139C189.021,475.465,188.039,475.114,187.322,474.352z"/>
			<path style="fill:#3D3C33;" d="M194.192,466.471c0-0.41,0.337-0.747,0.732-0.747c0.41,0,0.747,0.337,0.747,0.747
				c0,0.41-0.337,0.732-0.747,0.732C194.529,467.204,194.192,466.881,194.192,466.471z M194.382,475.29v-7.075h1.099v7.075H194.382z
				"/>
			<path style="fill:#3D3C33;" d="M197.297,477.106l0.556-0.82c0.586,0.703,1.289,0.967,2.3,0.967c1.172,0,2.27-0.571,2.27-2.124
				v-1.011c-0.513,0.718-1.377,1.26-2.373,1.26c-1.846,0-3.149-1.377-3.149-3.662c0-2.271,1.289-3.677,3.149-3.677
				c0.952,0,1.802,0.469,2.373,1.245v-1.069h1.099v6.87c0,2.344-1.641,3.076-3.369,3.076
				C198.952,478.161,198.131,477.925,197.297,477.106z M202.423,473.253v-3.091c-0.381-0.615-1.23-1.143-2.109-1.143
				c-1.421,0-2.27,1.128-2.27,2.695c0,1.553,0.849,2.695,2.27,2.695C201.193,474.411,202.042,473.869,202.423,473.253z"/>
			<path style="fill:#3D3C33;" d="M210.128,475.29v-4.629c0-1.245-0.63-1.641-1.582-1.641c-0.864,0-1.685,0.527-2.094,1.099v5.171
				h-1.099v-7.075h1.099v1.025c0.497-0.586,1.464-1.201,2.519-1.201c1.48,0,2.256,0.747,2.256,2.285v4.966H210.128z"/>
			<path style="fill:#3D3C33;" d="M212.647,471.745c0-2.051,1.465-3.706,3.486-3.706c2.139,0,3.398,1.67,3.398,3.794v0.278h-5.727
				c0.088,1.333,1.025,2.446,2.548,2.446c0.806,0,1.626-0.322,2.183-0.894l0.527,0.718c-0.703,0.703-1.655,1.084-2.813,1.084
				C214.156,475.465,212.647,473.957,212.647,471.745z M216.119,468.947c-1.509,0-2.256,1.274-2.314,2.358h4.643
				C218.433,470.25,217.73,468.947,216.119,468.947z"/>
			<path style="fill:#3D3C33;" d="M226.065,475.29v-1.055c-0.527,0.718-1.392,1.23-2.388,1.23c-1.845,0-3.149-1.406-3.149-3.706
				c0-2.256,1.288-3.721,3.149-3.721c0.952,0,1.817,0.469,2.388,1.245v-3.765h1.098v9.771H226.065z M226.065,473.371v-3.208
				c-0.396-0.615-1.245-1.143-2.124-1.143c-1.421,0-2.27,1.172-2.27,2.739c0,1.567,0.85,2.725,2.27,2.725
				C224.82,474.484,225.669,473.986,226.065,473.371z"/>
			<path style="fill:#3D3C33;" d="M232.407,475.29v-9.771h1.099v3.765c0.571-0.776,1.421-1.245,2.388-1.245
				c1.845,0,3.149,1.465,3.149,3.721c0,2.3-1.304,3.706-3.149,3.706c-0.996,0-1.86-0.513-2.388-1.23v1.055H232.407z
				 M235.615,474.484c1.436,0,2.285-1.157,2.285-2.725c0-1.567-0.85-2.739-2.285-2.739c-0.864,0-1.729,0.527-2.109,1.143v3.208
				C233.886,473.986,234.75,474.484,235.615,474.484z"/>
			<path style="fill:#3D3C33;" d="M240.243,477.062c0.161,0.073,0.425,0.117,0.6,0.117c0.483,0,0.806-0.161,1.055-0.747l0.469-1.069
				l-2.959-7.148h1.187l2.358,5.801l2.344-5.801h1.2l-3.544,8.511c-0.425,1.024-1.143,1.421-2.08,1.436
				c-0.234,0-0.601-0.044-0.806-0.104L240.243,477.062z"/>
		</g>
	</g>
</g>
</svg>
